<?xml version="1.0" encoding="utf-8"?>
<!-- Generator: Adobe Adobe Illustrator 24.2.0, SVG Export Plug-In . SVG Version: 6.00 Build 0)  -->
<svg version="1.1" xmlns="http://www.w3.org/2000/svg" xmlns:xlink="http://www.w3.org/1999/xlink" x="0px" y="0px" width="250px"
	 height="100px" viewBox="0 0 250 100" style="enable-background:new 0 0 250 100;" xml:space="preserve">
<style type="text/css">
	.st0{fill:none;stroke:#FFFFFF;stroke-width:2;stroke-linejoin:round;stroke-miterlimit:10;}
	.st1{fill:none;}
	.st2{fill:none;stroke:#FFFFFF;stroke-width:3;stroke-linejoin:round;stroke-miterlimit:10;}
	.st3{fill:#FFFFFF;}
	.st4{font-family:'Rooney-Bold';}
	.st5{font-size:24.6035px;}
</style>
<g id="_x32_">
	<ellipse class="st0" cx="143.42" cy="22.89" rx="2.03" ry="2.12"/>
	<ellipse class="st0" cx="135.29" cy="40.23" rx="2.03" ry="2.12"/>
	<ellipse class="st0" cx="151.5" cy="35.84" rx="2.03" ry="2.12"/>
	<ellipse class="st0" cx="135.29" cy="57.27" rx="2.03" ry="2.12"/>
	<ellipse class="st0" cx="127.17" cy="32.27" rx="2.03" ry="2.12"/>
	<ellipse class="st0" cx="110.72" cy="35.91" rx="2.03" ry="2.12"/>
	<ellipse class="st0" cx="118.83" cy="22.89" rx="2.03" ry="2.12"/>
	<ellipse class="st0" cx="126.82" cy="13.79" rx="2.03" ry="2.12"/>
	<ellipse class="st0" cx="119.01" cy="48.69" rx="2.03" ry="2.12"/>
	<ellipse class="st0" cx="144.42" cy="48.57" rx="2.03" ry="2.12"/>
	<rect x="164.07" y="28.49" class="st1" width="11.43" height="4.05"/>
	<g id="Layer_4_copy">
		<g id="Layer_6_copy">
			<path class="st2" d="M151.42,48.57l0.08,5.07c0,0,0.21,3.54-3.78,3.54c-3.99,0-4.36,0.02-4.36,0.02l-0.02,4.42
				c0,0,0.36,4.09-3.78,4.09c-4.14,0-4.27-1.83-4.27-3.25c0-1.42,0.05-3.11,0.05-3.11"/>
			<g id="Layer_7_copy">
				<path class="st2" d="M127.1,34.4l0.06,27.5c0,0,0.35,3.67-4.19,3.67c-4.54,0-3.91-2.75-3.91-3.83c0-1.08-0.05-10.87-0.05-10.87"
					/>
				<g id="Layer_8_copy">
					<path class="st2" d="M118.9,57.14l-5.17,0.12c0,0-3.01,0.48-3.01-3.76c0-4.23,0.08-15.17,0.08-15.17"/>
					<g id="Layer_9_copy">
						<path class="st2" d="M110.54,48.69l-5.14-0.18c0,0-2.76,0.17-2.76-3.59c0-3.76-0.13-18.2-0.13-18.2s-0.29-3.68,4.36-3.68
							c4.65,0,9.77-0.06,9.77-0.06"/>
						<g id="Layer_10_copy">
							<path class="st2" d="M110.84,22.89l0.04-4.98c0,0-0.4-3.63,3.18-3.63c3.58,0,4.97-0.05,4.97-0.05l-0.06-5.25
								c0,0-0.25-3.26,3.59-3.26c3.84,0,4.26,2.51,4.26,3.3s-0.03,2.8-0.03,2.8"/>
						</g>
					</g>
				</g>
			</g>
			<path class="st2" d="M151.67,23.23l5.05,0c0,0,3.14,0.22,3.14,4.33s-0.01,17.23-0.01,17.23s0.01,3.73-3.29,3.73
				c-3.3,0-10.26,0.06-10.26,0.06"/>
			<g id="Layer_3_copy">
				<path class="st2" d="M143.52,14.69l5.12,0.03c0,0,3.03,0.36,3.03,4.03s-0.16,14.63-0.16,14.63"/>
			</g>
			<g id="Layer_5_copy">
				<path class="st2" d="M135.29,38.06l0.11-28.75c0,0,0.59-3.41,3.93-3.41c3.33,0,4.1,1.79,4.1,3.35c0,0.69-0.01,2.97-0.02,5.29
					c0,0.52-0.01,1.04-0.01,1.55c-0.01,2.38-0.02,4.43-0.02,4.43"/>
			</g>
		</g>
	</g>
</g>
<g id="_x31_">
	<text transform="matrix(1 0 0 1 79.3914 90.2844)" class="st3 st4 st5">propintel</text>
</g>
</svg>
